Coordinates
nRows=105
nColumns=2
inDegrees=yes
endheader
time	ankle_angle_r	
2.93448	  9.246837	
3.00605	  9.218059	
3.07762	  9.221332	
3.14919	  9.287994	
3.22077	  9.294831	
3.29234	  9.205217	
3.36391	  9.189554	
3.43548	  9.221026	
3.50706	  9.252920	
3.57863	  9.284162	
3.6502	  9.246516	
3.72177	  9.238069	
3.79335	  9.239073	
3.86492	  9.215331	
3.93649	  9.234033	
4.00806	  9.226417	
4.07964	  9.237904	
4.15121	  9.255080	
4.22278	  9.212932	
4.29435	  9.210034	
4.36593	  9.235890	
4.4375	  9.222962	
4.50907	  9.210849	
4.58065	  9.250153	
4.65222	  9.277550	
4.72379	  9.256786	
4.79536	  9.254979	
4.86694	  9.289036	
4.93851	  9.307940	
5.01008	  9.286159	
5.08165	  9.312223	
5.15323	  9.380124	
5.2248	  9.369379	
5.29637	  9.322709	
5.36794	  9.334706	
5.43952	  9.384441	
5.51109	  9.389912	
5.58266	  9.342554	
5.65423	  9.326370	
5.72581	  9.366732	
5.79738	  9.378915	
5.86895	  9.318614	
5.94052	  9.278988	
6.0121	  9.290821	
6.08367	  9.269504	
6.15524	  9.219980	
6.22681	  9.258242	
6.29839	  9.341026	
6.36996	  9.313076	
6.44153	  9.277185	
6.5131	  9.294825	
6.58468	  9.261908	
6.65625	  9.238074	
6.72782	  9.250992	
6.7994	  9.264174	
6.87097	  9.295098	
6.94254	  9.286516	
7.01411	  9.236324	
7.08569	  9.262945	
7.15726	  9.335062	
7.22883	  9.323869	
7.3004	  9.283175	
7.37198	  9.303290	
7.44355	  9.343906	
7.51512	  9.341183	
7.58669	  9.314223	
7.65827	  9.333522	
7.72984	  9.345732	
7.80141	  9.327382	
7.87298	  9.339974	
7.94456	  9.343075	
8.01613	  9.321920	
8.0877	  9.282586	
8.15927	  9.248040	
8.23085	  9.243998	
8.30242	  9.267505	
8.37399	  9.295550	
8.44556	  9.257567	
8.51714	  9.245937	
8.58871	  9.300430	
8.66028	  9.304028	
8.73185	  9.297383	
8.80343	  9.342410	
8.875	  9.378269	
8.94657	  9.357003	
9.01815	  9.335364	
9.08972	  9.352029	
9.16129	  9.378746	
9.23286	  9.370781	
9.30444	  9.315195	
9.37601	  9.313181	
9.44758	  9.360773	
9.51915	  9.314458	
9.59073	  9.232124	
9.6623	  9.284389	
9.73387	  9.352250	
9.80544	  9.266915	
9.87702	  9.215380	
9.94859	  9.280662	
10.0202	  9.289745	
10.0917	  9.235619	
10.1633	  9.188413	
10.2349	  9.190881	
10.3065	  9.219349	
10.378	  9.176402	
